<svg id="Capa_1" enable-background="new 0 0 511.973 511.973" height="512" viewBox="0 0 511.973 511.973" width="512" xmlns="http://www.w3.org/2000/svg" fill="#FFF"><g id="XMLID_1983_"><g id="XMLID_133_"><path id="XMLID_38_" d="m509.044 87.884c-3.906-3.905-10.236-3.905-14.143 0l-79.863 79.863c-2.55-6.654-5.662-13.032-9.281-19.073l74.967-74.966c3.905-3.905 3.905-10.237 0-14.143-3.905-3.904-10.237-3.904-14.143 0l-72.637 72.637c-4.333-5.1-9.074-9.84-14.173-14.173l72.637-72.637c3.905-3.905 3.905-10.237 0-14.143-3.906-3.905-10.236-3.905-14.143 0l-74.967 74.967c-6.042-3.619-12.419-6.731-19.073-9.281l79.863-79.863c3.905-3.905 3.905-10.237 0-14.143-3.906-3.905-10.236-3.905-14.143 0l-87.842 87.842c-7.023-1.255-14.252-1.911-21.631-1.911-32.758 0-63.556 12.757-86.721 35.92-15.814 15.814-26.865 35.329-32.224 56.729-21.3 5.323-40.834 16.33-56.76 32.255-23.163 23.163-35.92 53.96-35.921 86.72 0 7.26.652 14.508 1.922 21.621l-87.839 87.842c-3.905 3.905-3.905 10.237 0 14.142 1.953 1.953 4.512 2.929 7.071 2.929s5.118-.977 7.071-2.929l158.256-158.255c7.227-7.228 12.808-15.567 16.649-24.833 6.217-2.032 12.778-3.105 19.508-3.105h.003c.929 0 1.857-.012 2.783-.034-4.441 15.847-12.863 30.246-24.767 42.149l-158.255 158.255c-3.905 3.905-3.905 10.237 0 14.143 1.953 1.953 4.512 2.929 7.071 2.929s5.118-.976 7.071-2.929l72.62-72.62c4.334 5.106 9.071 9.837 14.177 14.171l-72.623 72.623c-3.905 3.905-3.905 10.237 0 14.143 1.953 1.953 4.512 2.929 7.071 2.929s5.119-.977 7.071-2.929l158.256-158.255c11.901-11.902 26.302-20.327 42.149-24.767-.021.926-.034 1.854-.034 2.784 0 6.731-1.073 13.294-3.105 19.512-9.266 3.841-17.606 9.421-24.833 16.649l-158.255 158.253c-3.905 3.905-3.905 10.237 0 14.143 1.953 1.953 4.512 2.929 7.071 2.929s5.118-.976 7.071-2.929l87.841-87.841c7.11 1.269 14.359 1.922 21.62 1.922 15.828 0 31.208-2.951 45.713-8.771 5.125-2.057 7.613-7.879 5.556-13.005-2.056-5.125-7.878-7.613-13.005-5.557-12.125 4.866-24.999 7.333-38.264 7.333-1.16 0-2.318-.026-3.476-.065l22.081-22.081c15.044-3.449 28.748-11.045 39.796-22.093 15.599-15.599 24.189-36.339 24.189-58.4 0-25.879 10.078-50.21 28.379-68.51l38.07-38.07c1.64 5.586 2.535 11.487 2.535 17.596 0 2.987-.216 5.941-.625 8.848l-25.804 25.804c-14.513 14.514-22.506 33.809-22.506 54.333 0 13.318-2.486 26.24-7.392 38.408-2.064 5.123.415 10.949 5.537 13.013 1.226.494 2.49.728 3.735.728 3.959 0 7.707-2.367 9.278-6.264 2.096-5.202 3.817-10.518 5.171-15.925 21.405-5.359 40.917-16.407 56.735-32.224 23.163-23.163 35.92-53.96 35.921-86.72 0-7.379-.656-14.608-1.911-21.631l87.842-87.842c3.907-3.91 3.907-10.242.002-14.147zm-297.555 130.011c-.003 0-.002 0-.005 0-22.057 0-42.798 8.591-58.396 24.189-11.044 11.045-18.643 24.752-22.093 39.796l-22.083 22.083c-.039-1.158-.065-2.317-.065-3.477.001-27.417 10.678-53.193 30.063-72.579s45.16-30.062 72.577-30.063h.002c20.522 0 39.818-7.993 54.331-22.506l25.802-25.802c2.908-.409 5.862-.626 8.85-.626 6.109 0 12.01.896 17.596 2.535l-38.071 38.071c-18.298 18.3-42.629 28.378-68.508 28.379zm-65.1 161.862c-5.178-4.257-9.915-8.996-14.172-14.175l14.242-14.242c4.135 5.281 8.892 10.039 14.174 14.174zm161.926-161.925c-16.324 16.325-27.218 36.629-31.792 58.724-22.229 4.597-42.415 15.483-58.703 31.771l-42.909 42.909c-5.454-3.939-10.236-8.722-14.174-14.174l42.909-42.909c16.29-16.289 27.173-36.473 31.771-58.703 22.095-4.573 42.399-15.467 58.724-31.791l42.904-42.904c5.448 3.937 10.236 8.726 14.174 14.174zm64.735 66.246c-11.173 11.174-24.54 19.499-39.189 24.524.174-2.691.268-5.397.268-8.117 0-4.918.63-9.738 1.834-14.376 8.471-4.031 16.165-9.463 22.911-16.209 15.599-15.599 24.189-36.339 24.189-58.4 0-45.54-37.05-82.59-82.59-82.59-22.061 0-42.801 8.591-58.4 24.189-6.74 6.741-12.179 14.437-16.213 22.912-4.636 1.203-9.455 1.833-14.371 1.832-2.721 0-5.426.096-8.117.271 5.025-14.65 13.352-28.02 24.524-39.193 19.387-19.386 45.162-30.063 72.578-30.063 56.595.001 102.639 46.045 102.64 102.639-.001 27.42-10.678 53.195-30.064 72.581z"/><path id="XMLID_169_" d="m291.135 370.138c-2.63 0-5.21 1.06-7.069 2.93-1.86 1.85-2.931 4.43-2.931 7.07 0 2.63 1.07 5.21 2.931 7.07 1.859 1.86 4.439 2.93 7.069 2.93 2.631 0 5.21-1.07 7.07-2.93 1.86-1.87 2.93-4.44 2.93-7.07s-1.069-5.21-2.93-7.07c-1.86-1.87-4.439-2.93-7.07-2.93z"/></g></g></svg>